<?xml version="1.0" standalone="no"?><!DOCTYPE svg PUBLIC "-//W3C//DTD SVG 1.1//EN" "http://www.w3.org/Graphics/SVG/1.1/DTD/svg11.dtd"><svg t="1589513672511" class="icon" viewBox="0 0 1024 1024" version="1.1" xmlns="http://www.w3.org/2000/svg" p-id="3031" xmlns:xlink="http://www.w3.org/1999/xlink" width="48" height="48"><defs><style type="text/css"></style></defs><path d="M742.4 1024c-155.136 0-281.6-126.464-281.6-281.6s126.464-281.6 281.6-281.6 281.6 126.464 281.6 281.6-126.464 281.6-281.6 281.6z m0-512c-126.976 0-230.4 103.424-230.4 230.4s103.424 230.4 230.4 230.4 230.4-103.424 230.4-230.4-103.424-230.4-230.4-230.4zM460.8 563.2c-155.136 0-281.6-126.464-281.6-281.6S305.664 0 460.8 0s281.6 126.464 281.6 281.6c0 39.424-8.192 77.312-23.552 112.64-5.632 12.8-20.992 18.944-33.792 12.8-12.8-5.632-18.944-20.992-12.8-33.792 12.8-29.184 19.456-59.904 19.456-92.16 0-126.976-103.424-230.4-230.4-230.4s-230.4 103.424-230.4 230.4 103.424 230.4 230.4 230.4c14.336 0 25.6 11.264 25.6 25.6S475.136 563.2 460.8 563.2z" fill="" p-id="3032"></path><path d="M51.2 1024H0c0-121.344 51.712-249.344 142.336-350.72C233.984 570.88 350.208 512 460.8 512v51.2c-202.752 0-409.6 232.448-409.6 460.8zM702.976 855.04c-6.656 0-13.312-2.56-17.92-7.68l-102.4-102.4c-10.24-10.24-10.24-26.112 0-36.352s26.112-10.24 36.352 0l102.4 102.4c10.24 10.24 10.24 26.112 0 36.352-5.12 5.12-11.776 7.68-18.432 7.68z" fill="" p-id="3033"></path><path d="M705.536 857.6c-6.656 0-13.312-2.56-17.92-7.68-10.24-10.24-10.24-26.112 0-36.352l179.2-179.2c10.24-10.24 26.112-10.24 36.352 0s10.24 26.112 0 36.352l-179.2 179.2c-5.12 5.12-11.776 7.68-18.432 7.68z" fill="" p-id="3034"></path></svg>