<?xml version="1.0" standalone="no"?><!DOCTYPE svg PUBLIC "-//W3C//DTD SVG 1.1//EN" "http://www.w3.org/Graphics/SVG/1.1/DTD/svg11.dtd"><svg t="1589510054630" class="icon" viewBox="0 0 1024 1024" version="1.1" xmlns="http://www.w3.org/2000/svg" p-id="4152" xmlns:xlink="http://www.w3.org/1999/xlink" width="48" height="48"><defs><style type="text/css"></style></defs><path d="M599.296 791.424c0-26.432 21.504-48 48-48s48 21.568 48 48-21.504 48-48 48S599.296 817.856 599.296 791.424zM391.296 743.424c-26.496 0-48 21.568-48 48s21.504 48 48 48 48-21.568 48-48S417.792 743.424 391.296 743.424zM245.12 580.8C236.416 568.832 222.912 560.448 206.912 560.448c-26.496 0-48 21.568-48 48s21.504 48 48 48 48-21.568 48-48c0-5.376-1.408-10.304-3.072-15.104L245.12 580.8zM564.288 214.272c0-26.432-21.504-48-48-48s-48 21.568-48 48 21.504 48 48 48S564.288 240.704 564.288 214.272zM816.512 560.448c-16 0-29.44 8.384-38.208 20.352l-6.72 12.48c-1.6 4.8-3.072 9.728-3.072 15.104 0 26.432 21.504 48 48 48s48-21.568 48-48S843.008 560.448 816.512 560.448zM960 512c0 247.36-200.576 448-448 448-247.36 0-448-200.64-448-448 0-247.424 200.64-448 448-448C759.424 64 960 264.576 960 512zM912.512 608.448c0-52.992-43.008-96-96-96-23.616 0-44.992 8.896-61.696 23.04-54.976-28.928-128.128-66.176-151.68-76.288C576.576 447.808 560.704 426.24 550.912 404.608 546.88 381.888 545.344 356.096 545.728 338.496L545.728 305.216c38.528-12.48 66.56-48.256 66.56-90.944 0-52.992-43.008-96-96-96s-96 43.008-96 96c0 42.944 28.352 78.848 67.328 91.136l0 33.152c-0.192 1.92 0.064 4.8 0 7.168C486.208 364.672 476.928 434.944 420.288 459.2c-23.552 10.112-96.64 47.36-151.616 76.288-16.768-14.208-38.144-23.04-61.76-23.04-52.992 0-96 43.008-96 96s43.008 96 96 96 96-43.008 96-96c0-11.84-2.432-22.976-6.336-33.408C348.608 547.776 414.72 514.048 437.568 504.064 426.88 522.688 416.448 541.312 410.24 553.216c-27.648 53.376-25.216 121.472-25.088 123.392l0 19.52c-50.112 3.264-89.856 44.48-89.856 95.36 0 52.992 43.008 96 96 96s96-43.008 96-96c0-37.952-22.208-70.4-54.144-86.016l0-29.888c-0.704-16 1.536-65.344 19.712-100.224C467.072 547.968 506.304 480.768 513.92 469.184c1.664-2.56 2.944-5.76 4.352-8.64 1.536 3.008 2.88 6.272 4.608 8.896C530.56 480.768 570.304 547.84 584.768 575.296c21.888 41.856 19.904 99.712 19.84 101.248l0 29.376c-31.424 15.744-53.248 47.936-53.248 85.504 0 52.992 43.008 96 96 96s96-43.008 96-96c0-51.2-40.256-92.672-90.752-95.488l0-18.368c0.128-2.88 2.688-70.976-25.344-124.544C622.208 543.36 613.824 528.576 604.8 512.96c30.464 14.656 80.512 40.32 121.984 62.08-3.904 10.432-6.336 21.632-6.336 33.408 0 52.992 43.008 96 96 96S912.512 661.44 912.512 608.448z" p-id="4153"></path></svg>