<?xml version="1.0" standalone="no"?><!DOCTYPE svg PUBLIC "-//W3C//DTD SVG 1.1//EN" "http://www.w3.org/Graphics/SVG/1.1/DTD/svg11.dtd"><svg t="1574064621740" class="icon" viewBox="0 0 1024 1024" version="1.1" xmlns="http://www.w3.org/2000/svg" p-id="3428" xmlns:xlink="http://www.w3.org/1999/xlink" width="128" height="128"><defs><style type="text/css"></style></defs><path d="M254.7 593.6c0-25.8-16.7-34.5-47.3-34.5h-30.9v72.8h30.9c30.6 0 47.3-12.8 47.3-38.3zM361 639.7c0 50.9 22.5 83.4 58 83.4 35.4 0 58-32.5 58-83.4 0-51.2-22.5-81.8-58-81.8s-58 30.6-58 81.8zM642.7 723.1c35.4 0 58-32.5 58-83.4 0-51.2-22.5-81.8-58-81.8-35.4 0-58 30.6-58 81.8 0.1 50.8 22.6 83.4 58 83.4z" fill="#666666" p-id="3429"></path><path d="M912.8 441.5h-47.2V253.4L677.1 65.3H252.6c-52.1 0-94.3 42.1-94.3 94v282.1h-47.2c-26 0-47.2 21.1-47.2 47v282.1c0 26 21.1 47 47.2 47h47.2v47c0 51.9 42.2 94 94.3 94h518.7c52.1 0 94.3-42.1 94.3-94v-47h47.2c26 0 47.2-21 47.2-47v-282c0-26-21.1-47-47.2-47zM205.5 159.3c0-26 21.1-47 47.2-47H630v94.1c0 51.9 42.2 94 94.3 94h94.3v141.1H205.5V159.3z m543.8 480.4c0 77.3-43.5 124.6-106.6 124.6-63.1 0-106.6-47.3-106.6-124.6 0-77.6 43.5-122.7 106.6-122.7 63.1 0 106.6 45.4 106.6 122.7z m-223.8 0c0 77.3-43.5 124.6-106.6 124.6S312.3 717 312.3 639.7c0-77.6 43.5-122.7 106.6-122.7s106.6 45.4 106.6 122.7z m-349 29.9v90.2h-47.7V521.5h83.1c49.9 0 89.5 17.4 89.5 72.1 0 35.7-18 58-45.4 68.6l55.7 97.6h-53.1l-48.9-90.2h-33.2z m642 195.1c0 26-21.1 47-47.2 47H252.6c-26 0-47.2-21.1-47.2-47v-47h613.1v47z m106-303.6h-67.6v198.7h-47.7V561.1h-67v-39.6h182.3v39.6z" p-id="3430"></path></svg>