<?xml version="1.0" standalone="no"?><!DOCTYPE svg PUBLIC "-//W3C//DTD SVG 1.1//EN" "http://www.w3.org/Graphics/SVG/1.1/DTD/svg11.dtd"><svg t="1589513629027" class="icon" viewBox="0 0 1024 1024" version="1.1" xmlns="http://www.w3.org/2000/svg" p-id="2528" xmlns:xlink="http://www.w3.org/1999/xlink" width="48" height="48"><defs><style type="text/css"></style></defs><path d="M160 192C107.072 192 64 235.072 64 288v384c0 52.928 43.072 96 96 96l197.888-0.64c31.68 0 62.368 9.92 88.736 27.52L512 838.4l65.376-43.552a159.616 159.616 0 0 1 88.736-26.88H864c52.928 0 96-43.072 96-96V288c0-52.928-43.072-96-96-96h-197.888c-44.352 0-87.36 13.056-124.224 37.632L512 249.568l-29.888-19.936A223.296 223.296 0 0 0 357.888 192H160z m0 64h197.888c31.68 0 62.368 9.28 88.736 26.88L512 326.4l65.376-43.552A159.616 159.616 0 0 1 666.112 256H864c17.664 0 32 14.368 32 32v384c0 17.632-14.336 32-32 32h-197.888c-44.352 0-87.36 13.056-124.224 37.632l-29.888 19.936-29.888-19.936A223.296 223.296 0 0 0 357.888 704H160c-17.664 0-32-14.368-32-32V288c0-17.632 14.336-32 32-32z m32 128v64h256v-64H192z m384 0v64h256v-64h-256zM192 512v64h256v-64H192z m384 0v64h256v-64h-256z" p-id="2529"></path></svg>