<svg class="icon" viewBox="0 0 1117 1024" xmlns="http://www.w3.org/2000/svg" width="139.625" height="128"><defs><style/></defs><path d="M573.51 374.11c105.379 0 191.162-83.9 191.162-187.044S678.889 0 573.51 0C468.084 0 382.324 83.921 382.324 187.066S468.084 374.11 573.51 374.11zm0-327.355c79.057 0 143.36 62.93 143.36 140.311 0 77.359-64.303 140.288-143.36 140.288-79.058 0-143.383-62.93-143.383-140.288 0-77.382 64.325-140.311 143.36-140.311zm-11.24 679.47c-74.427 0-134.96 64.163-134.96 143.058s60.533 143.034 134.96 143.034c74.402 0 134.934-64.163 134.934-143.034 0-78.895-60.532-143.058-134.935-143.058zm0 238.406c-49.618 0-89.973-42.775-89.973-95.348 0-52.596 40.355-95.372 89.972-95.372s89.95 42.799 89.95 95.372-40.332 95.348-89.95 95.348zm404.805-238.406c-74.403 0-134.935 64.163-134.935 143.058s60.532 143.034 134.935 143.034c74.426 0 134.958-64.163 134.958-143.034 0-78.895-60.532-143.058-134.958-143.058zm0 238.406c-49.571 0-89.95-42.775-89.95-95.348 0-52.596 40.379-95.372 89.95-95.372 49.594 0 89.972 42.799 89.972 95.372s-40.378 95.348-89.972 95.348zm-832.14-238.406C60.532 726.225 0 790.388 0 869.283s60.532 143.034 134.935 143.034c74.426 0 134.959-64.163 134.959-143.034 0-78.895-60.533-143.058-134.959-143.058zm0 238.406c-49.617 0-89.949-42.775-89.949-95.348 0-52.596 40.332-95.372 89.95-95.372s89.972 42.799 89.972 95.372-40.355 95.348-89.973 95.348zm26.252-394.356h802.141V660.2h48.733V528.175h-426.45v-88.041h-46.708v88.04h-426.45v132.027h48.734z"/></svg>