<?xml version="1.0" standalone="no"?><!DOCTYPE svg PUBLIC "-//W3C//DTD SVG 1.1//EN" "http://www.w3.org/Graphics/SVG/1.1/DTD/svg11.dtd"><svg t="1574063554435" class="icon" viewBox="0 0 1024 1024" version="1.1" xmlns="http://www.w3.org/2000/svg" p-id="2190" xmlns:xlink="http://www.w3.org/1999/xlink" width="128" height="128"><defs><style type="text/css"></style></defs><path d="M624.256 544l224 0 0 64-224 0 0-64Z" p-id="2191"></path><path d="M624.256 416l224 0 0 64-224 0 0-64Z" p-id="2192"></path><path d="M624.256 672l224 0 0 64-224 0 0-64Z" p-id="2193"></path><path d="M49.536 302.016l0 512 512.064 0 0-512L49.536 302.016zM375.232 703.936 305.6 599.808l-31.36 46.912 31.36 0 0 57.216-157.44 0 114.304-168.384L161.216 384 245.76 384l59.904 88.128L365.504 384l84.48 0L348.608 535.488l114.368 168.448L375.232 703.936z" p-id="2194"></path><path d="M926.144 202.176l-121.856-121.92C777.728 53.76 725.376 32 687.808 32L278.336 32c-37.568 0-68.224 30.72-68.224 68.224l0 137.728 54.592 0L264.704 100.224c0-7.424 6.336-13.632 13.696-13.632l409.472 0c4.032 0 8.704 0.512 13.632 1.472l0 216.896 216.96 0c0.96 4.928 1.472 31.872 1.472 36.032l0 582.72c0 7.424-6.336 13.632-13.696 13.632L278.336 937.344c-7.424 0-13.696-6.336-13.696-13.632l0-45.76L210.048 877.952l0 45.76c0 37.568 30.656 68.224 68.224 68.224l627.904 0c37.568 0 68.224-30.656 68.224-68.224L974.4 341.056C974.464 303.488 952.704 228.672 926.144 202.176zM756.032 250.432 756.032 110.976c3.712 2.56 6.912 5.248 9.536 7.936l121.856 121.856c2.688 2.688 5.376 5.952 8 9.664L756.032 250.432z" p-id="2195"></path></svg>