<?xml version="1.0" standalone="no"?><!DOCTYPE svg PUBLIC "-//W3C//DTD SVG 1.1//EN" "http://www.w3.org/Graphics/SVG/1.1/DTD/svg11.dtd"><svg t="1586316665929" class="icon" viewBox="0 0 1024 1024" version="1.1" xmlns="http://www.w3.org/2000/svg" p-id="5143" xmlns:xlink="http://www.w3.org/1999/xlink" width="48" height="48"><defs><style type="text/css"></style></defs><path d="M828.823 847.837l63.619 0 0-64.263-63.619 0 0 64.263zM510.741 912.091l127.23 0 0 64.268-127.23 0 0-64.268zM1008.606 153.874l-123.609-106.174c-9.098-7.766-21.691-9.837-32.765-5.203l-95.677 39.911-77.1 48.831c-10.186 6.556-15.85 18.329-14.575 30.402l9.609 94.608-89.001 61.763-104.905 12.524-83.851-46.016-52.098-102.629c-7.891-15.553-26.654-21.852-42.239-14.204l-113.053 55.718c-10.939 5.398-17.875 16.587-17.875 28.87l0 42.147-37.728 37.149-42.878 0c-8.204 0-16.159 3.21-22.074 9.001l-57.257 55.716c-12.974 12.658-12.974 33.612 0 46.27l50.198 48.849 28.818 137.906c1.524 7.276 5.474 13.829 11.262 18.449l104.391 84.514c5.661 4.56 12.665 7.063 19.914 7.063l115.024 0 0 69.921c0 17.743 14.246 32.14 31.802 32.14l128.062 0 57.959 39.851c10.052 6.931 23.09 7.439 33.653 1.349l78.75-45.443 108.661-41.321c5.788-2.189 10.746-6.103 14.444-11.113l68.384-94.862c3.947-5.534 6.109-12.148 6.109-18.899l0-93.573c0-8.684-3.498-16.976-9.605-23.007l-39.95-39.204 50.571-33.67c4.708-3.091 8.463-7.394 11.01-12.465l35.498-71.541 89.765-63.11c8.522-6.029 13.615-15.852 13.615-26.353l0-129.687c0-9.431-4.138-18.385-11.262-24.475l0 0zM956.243 291.195l-82.762 58.314c-4.319 3.075-7.884 7.185-10.238 11.954l-35.249 71.06-76.719 50.845c-16.992 11.306-19.281 35.531-4.709 49.867l58.716 57.712 0 69.532-56.685 78.682-104.261 40.091-65.907 37.659-49.687-34.18c-5.28-3.675-11.513-5.593-17.939-5.593l-106.114 0 0-69.923c0-17.743-14.249-32.14-31.81-32.14l-135.626 0-86.841-70.252-28.431-136.362c-1.342-6.315-4.454-12.09-9.103-16.528l-33.395-32.577 29.198-23.591 38.107 0c8.271 0 16.286-3.267 22.209-9.12l56.549-55.716c6.045-5.985 9.545-14.266 9.545-22.949l-5.284-10.079 72.521-58.554 42.309 83.347c2.926 5.728 7.505 10.467 13.105 13.557l101.405 55.733c5.789 3.089 12.404 4.364 18.961 3.583l122.647-14.695c5.09-0.646 9.989-2.462 14.249-5.414l111.073-76.985c9.613-6.691 14.826-18.058 13.617-29.759l-9.539-93.766 55.601-35.666 72.778-29.952 97.711 83.93 0 97.936-0.001 0zM956.243 291.195z" p-id="5144"></path></svg>