<?xml version="1.0" standalone="no"?><!DOCTYPE svg PUBLIC "-//W3C//DTD SVG 1.1//EN" "http://www.w3.org/Graphics/SVG/1.1/DTD/svg11.dtd"><svg t="1574163226407" class="icon" viewBox="0 0 1024 1024" version="1.1" xmlns="http://www.w3.org/2000/svg" p-id="2694" xmlns:xlink="http://www.w3.org/1999/xlink" width="128" height="128"><defs><style type="text/css"></style></defs><path d="M924.596 223.68c31.483 77.879 16.57 170.671-46.397 233.638-69.595 69.595-175.643 81.193-256.836 34.797l-59.652 64.624 41.425 43.083 24.854-24.854c13.257-13.257 33.14-13.257 46.397 0l205.469 207.126c13.257 13.257 13.257 33.14 0 46.397l-92.793 92.793c-13.257 13.257-33.14 13.257-46.397 0l-203.812-207.126c-13.257-13.257-13.257-33.14 0-46.397l23.198-23.198-39.769-39.769-283.348 308.204c-26.511 26.511-67.938 26.511-92.793 0l-23.198-23.198c-26.511-26.511-26.511-67.938 0-92.793l323.117-270.093-213.755-215.411h-67.938l-77.879-125.933 62.966-62.966 129.247 79.536 1.657 66.281 217.069 217.069 62.966-53.025c-61.309-84.508-54.682-202.156 21.54-278.378 62.966-62.966 155.758-77.879 233.638-46.397l-139.189 137.533 115.99 115.99 134.218-137.533zM197.169 830.145c-13.257-13.257-33.14-13.257-46.397 0s-13.257 33.14 0 46.397c13.257 13.257 33.14 13.257 46.397 0 13.257-13.257 13.257-34.797 0-46.397v0 0z" p-id="2695"></path></svg>