<?xml version="1.0" standalone="no"?><!DOCTYPE svg PUBLIC "-//W3C//DTD SVG 1.1//EN" "http://www.w3.org/Graphics/SVG/1.1/DTD/svg11.dtd"><svg t="1589881645975" class="icon" viewBox="0 0 1024 1024" version="1.1" xmlns="http://www.w3.org/2000/svg" p-id="2777" xmlns:xlink="http://www.w3.org/1999/xlink" width="48" height="48"><defs><style type="text/css"></style></defs><path d="M514.55489 1024c-138.47505 0-268.774451-61.317365-357.684631-168.111776-11.241517-13.796407-9.197605-33.724551 4.087825-44.966068 13.796407-11.241517 33.724551-9.197605 44.966068 4.087824 76.135729 91.976048 188.550898 145.117764 308.11976 145.117765 88.91018 0 173.221557-28.61477 243.736527-82.778444 13.796407-10.730539 34.235529-8.175649 44.966068 6.131737 10.730539 13.796407 8.175649 34.235529-6.131737 44.966068-81.245509 62.850299-178.842315 95.552894-282.05988 95.552894zM938.155689 677.556886c-2.043912 0-4.087824 0-6.131737-0.510978-17.373253-3.576846-28.61477-20.439122-25.037924-37.812375 5.10978-26.05988 7.664671-52.630739 7.664671-79.201597 0-152.782435-84.822355-289.724551-221.764471-358.195609-15.840319-7.664671-22.483034-27.081836-14.307386-42.922155 7.664671-15.840319 27.081836-21.972056 42.922156-14.307386 158.403194 79.201597 257.021956 238.626747 257.021956 415.42515 0 30.658683-3.065868 61.828343-9.197605 91.46507-2.55489 15.329341-16.351297 26.05988-31.16966 26.05988zM82.267465 577.916168h-1.021956c-17.884232-0.510978-31.680639-15.329341-31.169661-33.213573 7.153693-207.968064 153.293413-387.832335 356.151697-436.37525 17.373253-4.087824 34.235529 6.642715 38.834331 23.50499 4.087824 17.373253-6.642715 34.235529-23.50499 38.834332-174.754491 41.9002-300.966068 196.726547-306.586826 376.07984-1.021956 17.373253-15.329341 31.169661-32.702595 31.169661z" fill="#333333" p-id="2778"></path><path d="M514.55489 256c-70.51497 0-128.255489-57.229541-128.255489-128.255489s57.740519-127.744511 128.255489-127.744511 128.255489 57.229541 128.255489 128.255489-57.740519 127.744511-128.255489 127.744511z m0-192.127745c-35.257485 0-63.872255 28.61477-63.872255 63.872256s28.61477 63.872255 63.872255 63.872255 63.872255-28.61477 63.872256-63.872255-28.61477-63.872255-63.872256-63.872256zM128.255489 873.772455C57.229541 873.772455 0 816.031936 0 745.516966s57.229541-128.255489 128.255489-128.255489 128.255489 57.229541 128.255489 128.255489-57.740519 128.255489-128.255489 128.255489z m0-192.127744c-35.257485 0-63.872255 28.61477-63.872255 63.872255s28.61477 63.872255 63.872255 63.872256 63.872255-28.61477 63.872256-63.872256-28.61477-63.872255-63.872256-63.872255zM893.700599 873.772455c-70.51497 0-128.255489-57.229541-128.255489-128.255489s57.229541-128.255489 128.255489-128.255489c70.51497 0 128.255489 57.229541 128.255489 128.255489s-57.229541 128.255489-128.255489 128.255489z m0-192.127744c-35.257485 0-63.872255 28.61477-63.872256 63.872255s28.61477 63.872255 63.872256 63.872256 63.872255-28.61477 63.872255-63.872256-28.61477-63.872255-63.872255-63.872255z" p-id="2779"></path></svg>