<?xml version="1.0" standalone="no"?><!DOCTYPE svg PUBLIC "-//W3C//DTD SVG 1.1//EN" "http://www.w3.org/Graphics/SVG/1.1/DTD/svg11.dtd"><svg t="1586079062922" class="icon" viewBox="0 0 1024 1024" version="1.1" xmlns="http://www.w3.org/2000/svg" p-id="703" xmlns:xlink="http://www.w3.org/1999/xlink" width="200" height="200"><defs><style type="text/css"></style></defs><path d="M288 508.544c-88.384 0-160 71.552-160 159.808l0.768 0C128.576 669.632 128 670.72 128 672.064c0 15.552 12.736 28.224 28.288 28.224l263.36 0C435.264 700.288 448 687.616 448 672.064c0-1.344-0.576-2.432-0.768-3.712L448 668.352C448 580.096 376.384 508.544 288 508.544zM384 412.672C384 359.68 340.992 316.736 288 316.736S192 359.68 192 412.672c0 52.928 43.008 95.872 96 95.872S384 465.6 384 412.672zM544 444.608l192 0c17.6 0 32-14.4 32-31.936s-14.4-32-32-32l-192 0c-17.6 0-32 14.464-32 32S526.4 444.608 544 444.608zM800 508.544l-256 0C526.4 508.544 512 522.944 512 540.48c0 17.6 14.4 32 32 32l256 0c17.6 0 32-14.4 32-32C832 522.944 817.6 508.544 800 508.544zM832 124.032 128 124.032c-70.656 0-128 57.344-128 128l0 512c0 70.656 57.344 128 128 128l704 0c70.656 0 128-57.344 128-128l0-512C960 181.312 902.656 124.032 832 124.032zM896 764.032c0 35.392-28.608 64-64 64L128 828.032c-35.392 0-64-28.608-64-64l0-512c0-35.392 28.608-64 64-64l704 0c35.392 0 64 28.608 64 64L896 764.032zM736 636.416l-192 0c-17.6 0-32 14.4-32 31.936s14.4 31.936 32 31.936l192 0c17.6 0 32-14.4 32-31.936S753.6 636.416 736 636.416z" p-id="704"></path></svg>