<?xml version="1.0" standalone="no"?><!DOCTYPE svg PUBLIC "-//W3C//DTD SVG 1.1//EN" "http://www.w3.org/Graphics/SVG/1.1/DTD/svg11.dtd"><svg t="1590647395844" class="icon" viewBox="0 0 1024 1024" version="1.1" xmlns="http://www.w3.org/2000/svg" p-id="3258" xmlns:xlink="http://www.w3.org/1999/xlink" width="48" height="48"><defs><style type="text/css"></style></defs><path d="M640 768H256c-19.2 0-32 12.8-32 32s16 32 32 32h384c19.2 0 32-12.8 32-32s-16-32-32-32zM896 64H256c-19.2 0-32 12.8-32 32s12.8 32 32 32h608c19.2 0 32 12.8 32 32v608c0 19.2 12.8 32 32 32s32-12.8 32-32V128c0-35.2-28.8-64-64-64z" fill="#333333" p-id="3259"></path><path d="M768 192H128c-35.2 0-64 28.8-64 64v640c0 35.2 28.8 64 64 64h640c35.2 0 64-28.8 64-64V256c0-35.2-28.8-64-64-64z m0 672c0 16-16 32-32 32H160c-16 0-32-16-32-32V288c0-16 16-32 32-32h576c16 0 32 16 32 32v576z" p-id="3260"></path></svg>