<?xml version="1.0" standalone="no"?><!DOCTYPE svg PUBLIC "-//W3C//DTD SVG 1.1//EN" "http://www.w3.org/Graphics/SVG/1.1/DTD/svg11.dtd"><svg t="1586315608693" class="icon" viewBox="0 0 1024 1024" version="1.1" xmlns="http://www.w3.org/2000/svg" p-id="2385" xmlns:xlink="http://www.w3.org/1999/xlink" width="48" height="48"><defs><style type="text/css"></style></defs><path d="M639.627772 892.931872 226.749304 892.931872c-54.56985 0-98.806353-44.237527-98.806353-98.806353L127.942951 226.14146c0-54.56985 44.237527-98.806353 98.806353-98.806353l569.914014 0c54.56985 0 98.806353 44.237527 98.806353 98.806353l0 413.525198 63.960731 0L959.430402 209.447243c0-80.317257-65.109903-145.426137-145.426137-145.426137L209.408357 64.021106c-80.316234 0-145.426137 65.109903-145.426137 145.426137L63.98222 814.043151c0 80.317257 65.109903 145.426137 145.426137 145.426137l430.219415 0L639.627772 892.931872zM959.430402 921.185356 710.73425 672.489204c35.524075-43.930535 56.81396-99.846032 56.81396-160.742984 0-141.29812-114.544803-255.842922-255.842922-255.842922S255.863389 370.447077 255.863389 511.745197s114.544803 255.842922 255.842922 255.842922c60.896952 0 116.813472-21.289885 160.744008-56.81396l248.696152 248.696152L959.430402 921.185356zM511.706311 703.627389c-105.97359 0-191.882192-85.908602-191.882192-191.882192s85.908602-191.882192 191.882192-191.882192 191.882192 85.908602 191.882192 191.882192S617.679901 703.627389 511.706311 703.627389z" p-id="2386"></path></svg>