<?xml version="1.0" standalone="no"?><!DOCTYPE svg PUBLIC "-//W3C//DTD SVG 1.1//EN" "http://www.w3.org/Graphics/SVG/1.1/DTD/svg11.dtd"><svg t="1589168592650" class="icon" viewBox="0 0 1024 1024" version="1.1" xmlns="http://www.w3.org/2000/svg" p-id="2252" xmlns:xlink="http://www.w3.org/1999/xlink" width="48" height="48"><defs><style type="text/css"></style></defs><path d="M956.16 465.92c-1.92-4.48-3.84-8.32-7.68-12.16l-188.16-188.16C753.28 257.92 743.68 255.36 734.08 256L576 256c0-70.4-57.6-128-128-128L128 128C57.6 128 0 185.6 0 256l0 480C0 753.92 14.08 768 32 768L64 768c0 70.4 57.6 128 128 128 70.4 0 128-57.6 128-128l320 0c0 70.4 57.6 128 128 128 70.4 0 128-57.6 128-128l32 0c17.92 0 32-14.08 32-32l0-256C960 474.88 958.72 469.76 956.16 465.92zM192 832c-35.2 0-64-28.8-64-64 0-35.2 28.8-64 64-64 35.2 0 64 28.8 64 64C256 803.2 227.2 832 192 832zM512 704 302.08 704C280.32 665.6 239.36 640 192 640c-47.36 0-88.32 25.6-110.08 64L64 704 64 256c0-35.2 28.8-64 64-64l320 0c35.2 0 64 28.8 64 64L512 704zM768 832c-35.2 0-64-28.8-64-64 0-35.2 28.8-64 64-64 35.2 0 64 28.8 64 64C832 803.2 803.2 832 768 832zM896 704l-17.92 0c-22.4-38.4-62.72-64-110.08-64-47.36 0-88.32 25.6-110.08 64L576 704 576 320l144.64 0L896 495.36 896 704z" p-id="2253"></path></svg>