<?xml version="1.0" standalone="no"?><!DOCTYPE svg PUBLIC "-//W3C//DTD SVG 1.1//EN" "http://www.w3.org/Graphics/SVG/1.1/DTD/svg11.dtd"><svg t="1590823365371" class="icon" viewBox="0 0 1024 1024" version="1.1" xmlns="http://www.w3.org/2000/svg" p-id="2672" xmlns:xlink="http://www.w3.org/1999/xlink" width="48" height="48"><defs><style type="text/css"></style></defs><path d="M536.192 213.333333H810.666667a170.666667 170.666667 0 0 1 170.666666 170.666667v426.666667a170.666667 170.666667 0 0 1-170.666666 170.666666H213.333333a170.666667 170.666667 0 0 1-170.666666-170.666666V384a170.666667 170.666667 0 0 1 170.666666-170.666667h259.413334l-166.4-138.666666a21.333333 21.333333 0 1 1 27.306666-32.768l170.837334 142.336L675.285333 41.898667a21.333333 21.333333 0 1 1 27.306667 32.768L536.192 213.333333zM213.333333 256a128 128 0 0 0-128 128v426.666667a128 128 0 0 0 128 128h597.333334a128 128 0 0 0 128-128V384a128 128 0 0 0-128-128H213.333333z" p-id="2673"></path><path d="M537.898667 755.2c-26.794667 21.205333-64.768 15.488-84.906667-12.8a66.389333 66.389333 0 0 1-12.117333-38.4v-213.333333c0-35.328 27.178667-64 60.629333-64 13.141333 0 25.898667 4.48 36.394667 12.8l134.741333 106.666666c26.794667 21.205333 32.213333 61.312 12.117333 89.6-3.413333 4.864-7.509333 9.173333-12.117333 12.8l-134.741333 106.666667z m112.384-145.066667a22.528 22.528 0 0 0-3.925334-29.866666l-131.285333-106.666667a18.730667 18.730667 0 0 0-11.818667-4.266667c-10.88 0-19.712 9.557333-19.712 21.333334v213.333333c0 4.608 1.408 9.088 3.968 12.8 6.528 9.386667 18.858667 11.349333 27.562667 4.266667l131.285333-106.666667a20.608 20.608 0 0 0 3.925334-4.266667z" p-id="2674"></path></svg>