<?xml version="1.0" standalone="no"?><!DOCTYPE svg PUBLIC "-//W3C//DTD SVG 1.1//EN" "http://www.w3.org/Graphics/SVG/1.1/DTD/svg11.dtd"><svg t="1574492776710" class="icon" viewBox="0 0 1024 1024" version="1.1" xmlns="http://www.w3.org/2000/svg" p-id="3155" xmlns:xlink="http://www.w3.org/1999/xlink" width="128" height="128"><defs><style type="text/css"></style></defs><path d="M846.543 973.061H160.978c-8.284 0-15-6.716-15-15V201.624c0-8.284 6.716-15 15-15s15 6.716 15 15v741.437h655.565V814.406c0-8.284 6.716-15 15-15s15 6.716 15 15V958.06c0 8.285-6.716 15.001-15 15.001z m0-204.722c-8.284 0-15-6.716-15-15v-69.216c0-8.284 6.716-15 15-15s15 6.716 15 15v69.216c0 8.284-6.716 15-15 15z m0-127.621c-8.284 0-15-6.716-15-15V70.678l-655.565 2.536v52.38c0 8.284-6.716 15-15 15s-15-6.716-15-15V58.271c0-8.262 6.681-14.968 14.942-15l685.565-2.652h0.058a15 15 0 0 1 15 15v570.098c0 8.285-6.716 15.001-15 15.001z" fill="#858586" p-id="3156"></path><path d="M503.756 326.521H215.67c-8.284 0-15-6.716-15-15V120.098c0-8.284 6.716-15 15-15h288.085c8.284 0 15 6.716 15 15v191.423c0.001 8.284-6.715 15-14.999 15z m-273.086-30h258.085V135.098H230.67v161.423zM762.456 135.098H571.398c-8.284 0-15-6.716-15-15s6.716-15 15-15h191.058c8.284 0 15 6.716 15 15s-6.716 15-15 15zM762.456 230.809H571.398c-8.284 0-15-6.716-15-15s6.716-15 15-15h191.058c8.284 0 15 6.716 15 15s-6.716 15-15 15zM762.456 422.232H215.67c-8.284 0-15-6.716-15-15s6.716-15 15-15h546.786c8.284 0 15 6.716 15 15s-6.716 15-15 15zM762.456 517.943H215.67c-8.284 0-15-6.715-15-15s6.716-15 15-15h546.786c8.284 0 15 6.716 15 15s-6.716 15-15 15zM762.456 326.521H571.398c-8.284 0-15-6.716-15-15s6.716-15 15-15h191.058c8.284 0 15 6.716 15 15s-6.716 15-15 15zM762.456 900.799H215.67c-8.284 0-15-6.716-15-15s6.716-15 15-15h546.786c8.284 0 15 6.716 15 15s-6.716 15-15 15zM762.456 805.078H474.37c-8.284 0-15-6.716-15-15V598.655c0-8.284 6.716-15 15-15h288.086c8.284 0 15 6.716 15 15v191.423c0 8.284-6.716 15-15 15z m-273.086-30h258.086V613.655H489.37v161.423zM406.728 613.655H215.67c-8.284 0-15-6.716-15-15s6.716-15 15-15h191.057c8.284 0 15 6.716 15 15s-6.715 15-14.999 15zM406.728 709.367H215.67c-8.284 0-15-6.716-15-15s6.716-15 15-15h191.057c8.284 0 15 6.716 15 15s-6.715 15-14.999 15zM406.728 805.078H215.67c-8.284 0-15-6.716-15-15s6.716-15 15-15h191.057c8.284 0 15 6.716 15 15s-6.715 15-14.999 15z" fill="#858586" p-id="3157"></path></svg>