<?xml version="1.0" standalone="no"?><!DOCTYPE svg PUBLIC "-//W3C//DTD SVG 1.1//EN" "http://www.w3.org/Graphics/SVG/1.1/DTD/svg11.dtd"><svg t="1586079089881" class="icon" viewBox="0 0 1024 1024" version="1.1" xmlns="http://www.w3.org/2000/svg" p-id="1355" xmlns:xlink="http://www.w3.org/1999/xlink" width="200" height="200"><defs><style type="text/css"></style></defs><path d="M489.8 533.7c-111.6 0-202.3-90.8-202.3-202.5 0-111.6 90.8-202.5 202.3-202.5 111.6 0 202.3 90.8 202.3 202.5s-90.8 202.5-202.3 202.5z m0-344.9c-78.5 0-142.3 63.9-142.3 142.5s63.9 142.5 142.3 142.5 142.3-63.9 142.3-142.5-63.8-142.5-142.3-142.5z" fill="" p-id="1356"></path><path d="M493.7 897H128.4v-30c0-104.5 37.3-202.9 104.9-277 33.1-36.3 71.8-64.8 114.9-84.8 44.8-20.8 92.5-31.3 141.6-31.3v60c-80 0-155.3 34.3-212.2 96.6-51.1 55.9-81.8 128.4-88 206.5h304.1v60zM756.4 895.4c-76.4 0-138.5-62.2-138.5-138.5S680 618.3 756.4 618.3s138.5 62.2 138.5 138.5-62.1 138.6-138.5 138.6z m0-217.1c-43.3 0-78.5 35.2-78.5 78.5s35.2 78.5 78.5 78.5 78.5-35.2 78.5-78.5-35.2-78.5-78.5-78.5z" fill="" p-id="1357"></path><path d="M761.8 635.6h-60V428.4H862v60H761.8z" fill="" p-id="1358"></path><path d="M739.2 519.3h122.9v60H739.2z" p-id="1359"></path></svg>